<?xml version="1.0" encoding="UTF-8"?>
<!DOCTYPE svg PUBLIC "-//W3C//DTD SVG 1.0//EN" "http://www.w3.org/TR/2001/REC-SVG-20010904/DTD/svg10.dtd">
<svg xmlns="http://www.w3.org/2000/svg" xml:space="preserve" width="1820px" height="429px" version="1.0" style="shape-rendering:geometricPrecision; text-rendering:geometricPrecision; image-rendering:optimizeQuality; fill-rule:evenodd; clip-rule:evenodd"
viewBox="0 0 30.9 7.29"
 xmlns:xlink="http://www.w3.org/1999/xlink"
 xmlns:xodm="http://www.corel.com/coreldraw/odm/2003">
 <defs>
  <style type="text/css">
   <![CDATA[
    .fil0 {fill:white;fill-rule:nonzero}
   ]]>
  </style>
 </defs>
 <g id="Layer_x0020_1">
  <metadata id="CorelCorpID_0Corel-Layer"/>
  <path class="fil0" d="M30.8 5.89c0.09,0 0.12,-0.05 0.08,-0.12l-1.02 -2.28 0.96 -1.96c0.04,-0.08 0,-0.13 -0.08,-0.13l-0.59 0c-0.06,0 -0.1,0.02 -0.13,0.08l-0.87 1.77 0 -1.74c0,-0.07 -0.03,-0.11 -0.11,-0.11l-0.54 0c-0.07,0 -0.11,0.04 -0.11,0.11l0 4.27c0,0.08 0.04,0.11 0.11,0.11l0.54 0c0.08,0 0.11,-0.03 0.11,-0.11l0 -1.24 0.21 -0.4 0.71 1.67c0.02,0.06 0.06,0.08 0.13,0.08l0.6 0zm-5.01 -4.49c-0.06,0 -0.11,0.05 -0.11,0.11l0 3.42c0,0.15 -0.08,0.22 -0.23,0.22l-0.29 0c-0.14,0 -0.22,-0.07 -0.22,-0.22l0 -3.42c0,-0.06 -0.05,-0.11 -0.12,-0.11l-0.54 0c-0.06,0 -0.11,0.05 -0.11,0.11l0 3.57c0,0.53 0.28,0.81 0.81,0.81l0.63 0c0.53,0 0.81,-0.28 0.81,-0.81l0 -3.57c0,-0.06 -0.05,-0.11 -0.11,-0.11l-0.52 0zm-3.59 0.81c0,-0.53 -0.29,-0.81 -0.81,-0.81l-0.63 0c-0.53,0 -0.82,0.28 -0.82,0.81l0 2.87c0,0.53 0.29,0.81 0.82,0.81l0.63 0c0.52,0 0.81,-0.28 0.81,-0.81l0 -0.6c0,-0.06 -0.03,-0.09 -0.09,-0.09l-0.56 0c-0.07,0 -0.09,0.03 -0.09,0.09l0 0.45c0,0.15 -0.08,0.22 -0.23,0.22l-0.29 0c-0.15,0 -0.23,-0.07 -0.23,-0.22l0 -2.57c0,-0.14 0.08,-0.22 0.23,-0.22l0.29 0c0.15,0 0.23,0.08 0.23,0.22l0 0.45c0,0.06 0.02,0.09 0.09,0.09l0.56 0c0.06,0 0.09,-0.03 0.09,-0.09l0 -0.6zm-5.93 0.87c-0.2,0 -0.4,0.05 -0.59,0.16 -0.19,0.11 -0.38,0.29 -0.58,0.54l-0.61 -0.68c0.24,-0.36 0.52,-0.64 0.84,-0.83 0.31,-0.19 0.64,-0.28 0.97,-0.28 0.3,0 0.58,0.07 0.84,0.21 0.26,0.14 0.49,0.34 0.69,0.58 0.19,0.24 0.34,0.52 0.45,0.84 0.11,0.32 0.17,0.66 0.17,1.03 0,0.36 -0.06,0.7 -0.17,1.02 -0.12,0.32 -0.28,0.6 -0.47,0.84 -0.2,0.24 -0.43,0.43 -0.69,0.57 -0.27,0.14 -0.55,0.21 -0.85,0.21 -0.28,0 -0.55,-0.06 -0.8,-0.18 -0.25,-0.12 -0.5,-0.32 -0.74,-0.6l0.55 -0.78c0.18,0.19 0.34,0.32 0.5,0.38 0.15,0.07 0.32,0.1 0.49,0.1 0.17,0 0.33,-0.04 0.48,-0.12 0.15,-0.08 0.28,-0.2 0.4,-0.34 0.11,-0.14 0.2,-0.3 0.27,-0.5 0.06,-0.18 0.09,-0.39 0.09,-0.6 0,-0.22 -0.03,-0.42 -0.09,-0.61 -0.07,-0.19 -0.16,-0.36 -0.27,-0.5 -0.12,-0.14 -0.25,-0.25 -0.4,-0.34 -0.15,-0.08 -0.31,-0.12 -0.48,-0.12zm-1.44 -1.99c0.2,0 0.39,0.06 0.59,0.16 0.19,0.11 0.38,0.29 0.58,0.54l0.61 -0.67c-0.25,-0.37 -0.53,-0.65 -0.84,-0.84 -0.32,-0.19 -0.64,-0.28 -0.97,-0.28 -0.3,0 -0.58,0.07 -0.85,0.21 -0.26,0.14 -0.49,0.34 -0.68,0.58 -0.19,0.24 -0.35,0.52 -0.46,0.84 -0.11,0.32 -0.16,0.67 -0.16,1.03 0,0.36 0.06,0.7 0.17,1.02 0.11,0.32 0.27,0.6 0.47,0.84 0.19,0.24 0.42,0.43 0.69,0.57 0.27,0.14 0.55,0.21 0.85,0.21 0.28,0 0.54,-0.06 0.79,-0.18 0.26,-0.12 0.5,-0.32 0.74,-0.6l-0.54 -0.77c-0.18,0.18 -0.35,0.31 -0.5,0.37 -0.16,0.07 -0.32,0.1 -0.49,0.1 -0.17,0 -0.33,-0.04 -0.49,-0.12 -0.15,-0.08 -0.28,-0.19 -0.39,-0.33 -0.11,-0.14 -0.2,-0.31 -0.27,-0.5 -0.06,-0.19 -0.09,-0.39 -0.09,-0.61 0,-0.22 0.03,-0.42 0.09,-0.61 0.07,-0.19 0.16,-0.35 0.27,-0.5 0.11,-0.14 0.24,-0.25 0.39,-0.33 0.16,-0.08 0.32,-0.13 0.49,-0.13zm-3.49 4.8c0.09,0 0.12,-0.05 0.08,-0.12l-1.02 -2.28 0.96 -1.96c0.04,-0.08 0,-0.13 -0.08,-0.13l-0.59 0c-0.06,0 -0.1,0.02 -0.13,0.08l-0.87 1.77 0 -1.74c0,-0.07 -0.04,-0.11 -0.11,-0.11l-0.54 0c-0.07,0 -0.11,0.04 -0.11,0.11l0 4.27c0,0.08 0.04,0.11 0.11,0.11l0.54 0c0.07,0 0.11,-0.03 0.11,-0.11l0 -1.24 0.21 -0.4 0.71 1.67c0.02,0.06 0.06,0.08 0.13,0.08l0.6 0zm-4.4 0c0.07,0 0.09,-0.03 0.08,-0.09l-0.94 -4.33c-0.01,-0.05 -0.04,-0.07 -0.09,-0.07l-0.78 0c-0.05,0 -0.09,0.02 -0.1,0.07l-0.93 4.33c-0.02,0.06 0.01,0.09 0.07,0.09l0.6 0c0.05,0 0.08,-0.02 0.09,-0.07l0.15 -0.83 1.01 0 0.15 0.83c0.01,0.05 0.04,0.07 0.09,0.07l0.6 0zm-0.99 -1.55l-0.72 0 0.36 -1.96 0.36 1.96zm-3.7 -2.13c0,-0.53 -0.28,-0.81 -0.8,-0.81l-0.63 0c-0.53,0 -0.82,0.28 -0.82,0.81l0 2.87c0,0.53 0.29,0.81 0.82,0.81l0.63 0c0.52,0 0.8,-0.28 0.8,-0.81l0 -0.6c0,-0.06 -0.03,-0.09 -0.09,-0.09l-0.56 0c-0.06,0 -0.09,0.03 -0.09,0.09l0 0.45c0,0.15 -0.08,0.22 -0.22,0.22l-0.29 0c-0.15,0 -0.23,-0.07 -0.23,-0.22l0 -2.57c0,-0.14 0.07,-0.22 0.23,-0.22l0.29 0c0.14,0 0.22,0.08 0.22,0.22l0 0.45c0,0.06 0.03,0.09 0.09,0.09l0.56 0c0.06,0 0.09,-0.03 0.09,-0.09l0 -0.6zm0 0z"/>
 </g>
</svg>
